<svg width="567" height="67" viewBox="0 0 567 67" fill="none" xmlns="http://www.w3.org/2000/svg">
    <g filter="url(#filter0_d_1016_112)">
    <path d="M13.75 2.4H17.11V45.59H40.28V48.95H13.75V2.4ZM4.16 2.4H7.52V53.64H40.28V57H4.16V2.4ZM74.3552 5.76H63.0152L45.8652 57H42.3652L60.5652 2.4H76.8052L95.0052 57H91.3652L74.3552 5.76ZM66.5152 11.29H70.5752L78.9752 36.84H58.1152L66.5152 11.29ZM74.3552 33.48C74.1219 32.7333 73.7486 31.6133 73.2352 30.12C72.7219 28.6267 72.1619 26.97 71.5552 25.15C70.9486 23.2833 70.3886 21.44 69.8752 19.62C69.3619 17.7533 68.9886 16.0967 68.7552 14.65H68.3352C68.1019 16.05 67.7286 17.6833 67.2152 19.55C66.7486 21.37 66.2119 23.2133 65.6052 25.08C64.9986 26.9 64.4386 28.58 63.9252 30.12C63.4119 31.6133 63.0386 32.7333 62.8052 33.48H74.3552ZM77.8552 44.19H59.3752L55.0352 57H51.5352L56.9952 40.83H80.3052L85.5552 57H82.0552L77.8552 44.19ZM125.293 2.4H161.763V5.76H128.653V57H125.293V2.4ZM134.813 9.68H161.763V13.04H138.173V25.78H158.753V29.14H134.813V9.68ZM134.813 32.78H158.753V36.14H138.173V57H134.813V32.78ZM197.08 31.94C199.88 30.9133 202.05 29.7933 203.59 28.58C205.177 27.3667 206.273 25.9433 206.88 24.31C207.533 22.6767 207.86 20.7633 207.86 18.57C207.86 15.9567 207.23 13.6933 205.97 11.78C204.757 9.86666 203.077 8.39666 200.93 7.37C198.783 6.29666 196.31 5.76 193.51 5.76H173.77V57H170.41V2.4H193.51C197.01 2.4 200.09 3.07666 202.75 4.43C205.41 5.78333 207.487 7.67333 208.98 10.1C210.473 12.48 211.22 15.3033 211.22 18.57C211.22 22.8167 210.403 26.1533 208.77 28.58C207.183 30.96 204.897 32.6867 201.91 33.76L214.86 57H210.87L197.08 31.94ZM179.65 9.68H191.13C194.303 9.68 196.847 10.5433 198.76 12.27C200.673 13.95 201.63 16.26 201.63 19.2C201.63 22.42 200.673 24.9167 198.76 26.69C196.893 28.4633 194.373 29.35 191.2 29.35H179.65V9.68ZM191.2 25.99C193.347 25.99 195.05 25.4067 196.31 24.24C197.617 23.0267 198.27 21.3467 198.27 19.2C198.27 17.24 197.593 15.7233 196.24 14.65C194.933 13.5767 193.23 13.04 191.13 13.04H183.01V25.99H191.2ZM190.08 36H182.94V57H179.58V32.64H192.25L203.45 57H199.74L190.08 36ZM222.09 2.4H259.89V5.76H225.45V53.64H261.29V57H222.09V2.4ZM231.47 9.68H259.89V13.04H234.83V23.82H256.32V27.18H231.47V9.68ZM231.47 30.89H256.32V34.25H234.83V46.36H261.29V49.72H231.47V30.89ZM270.351 2.4H308.151V5.76H273.711V53.64H309.551V57H270.351V2.4ZM279.731 9.68H308.151V13.04H283.091V23.82H304.581V27.18H279.731V9.68ZM279.731 30.89H304.581V34.25H283.091V46.36H309.551V49.72H279.731V30.89ZM328.203 2.4H331.563V45.59H354.733V48.95H328.203V2.4ZM318.613 2.4H321.973V53.64H354.733V57H318.613V2.4ZM388.808 5.76H377.468L360.318 57H356.818L375.018 2.4H391.258L409.458 57H405.818L388.808 5.76ZM380.968 11.29H385.028L393.428 36.84H372.568L380.968 11.29ZM388.808 33.48C388.575 32.7333 388.202 31.6133 387.688 30.12C387.175 28.6267 386.615 26.97 386.008 25.15C385.402 23.2833 384.842 21.44 384.328 19.62C383.815 17.7533 383.442 16.0967 383.208 14.65H382.788C382.555 16.05 382.182 17.6833 381.668 19.55C381.202 21.37 380.665 23.2133 380.058 25.08C379.452 26.9 378.892 28.58 378.378 30.12C377.865 31.6133 377.492 32.7333 377.258 33.48H388.808ZM392.308 44.19H373.828L369.488 57H365.988L371.448 40.83H394.758L400.008 57H396.508L392.308 44.19ZM431.365 30.89C430.618 29.3033 429.895 27.6 429.195 25.78C428.542 23.9133 427.958 22.14 427.445 20.46C426.978 18.7333 426.605 17.31 426.325 16.19H426.115C426.628 18.8967 427.025 22.0233 427.305 25.57C427.585 29.07 427.725 32.8267 427.725 36.84V57H424.365V12.41H426.255L445.925 53.64H456.425V2.4H459.785V57H443.825L431.365 30.89ZM428.915 5.76H418.975V57H415.615V2.4H431.015L443.545 28.23C444.478 30.1433 445.342 32.1033 446.135 34.11C446.928 36.07 447.582 37.8433 448.095 39.43C448.655 40.97 448.982 42.0667 449.075 42.72H449.425C448.818 39.2667 448.375 35.8833 448.095 32.57C447.815 29.2567 447.675 26.2467 447.675 23.54V2.4H451.035V46.5H448.725L428.915 5.76ZM516.04 47.48C514.313 50.84 511.63 53.5 507.99 55.46C504.397 57.42 500.267 58.4 495.6 58.4C490.373 58.4 485.777 57.2333 481.81 54.9C477.89 52.52 474.81 49.1833 472.57 44.89C470.377 40.55 469.28 35.44 469.28 29.56C469.28 23.7733 470.377 18.7333 472.57 14.44C474.81 10.1467 477.89 6.83333 481.81 4.5C485.777 2.12 490.35 0.929996 495.53 0.929996C498.843 0.929996 501.853 1.39666 504.56 2.33C507.267 3.26333 509.577 4.54666 511.49 6.18C513.403 7.81333 514.803 9.68 515.69 11.78L513.38 13.88C511.373 10.2867 508.83 7.79 505.75 6.39C502.67 4.99 499.263 4.29 495.53 4.29C490.957 4.29 486.943 5.34 483.49 7.44C480.083 9.54 477.423 12.48 475.51 16.26C473.597 20.04 472.64 24.4733 472.64 29.56C472.64 34.74 473.597 39.2433 475.51 43.07C477.423 46.8967 480.107 49.86 483.56 51.96C487.013 54.06 491.027 55.11 495.6 55.11C499.24 55.11 502.577 54.3867 505.61 52.94C508.69 51.4933 511.443 48.9267 513.87 45.24L516.04 47.48ZM510.86 42.23C509.04 45.03 506.87 47.1067 504.35 48.46C501.83 49.7667 499.287 50.42 496.72 50.42C493.64 50.42 490.793 49.65 488.18 48.11C485.613 46.57 483.56 44.26 482.02 41.18C480.48 38.1 479.71 34.2267 479.71 29.56C479.71 25.08 480.48 21.3 482.02 18.22C483.56 15.14 485.613 12.83 488.18 11.29C490.747 9.70333 493.57 8.91 496.65 8.91C499.123 8.91 501.597 9.56333 504.07 10.87C506.543 12.13 508.573 14.1367 510.16 16.89L507.71 19.13C507.15 17.87 506.287 16.7267 505.12 15.7C504 14.6267 502.693 13.7867 501.2 13.18C499.707 12.5733 498.19 12.27 496.65 12.27C494.13 12.27 491.843 12.9467 489.79 14.3C487.737 15.6533 486.103 17.6133 484.89 20.18C483.677 22.7467 483.07 25.8733 483.07 29.56C483.07 33.3867 483.677 36.6067 484.89 39.22C486.103 41.8333 487.737 43.7933 489.79 45.1C491.843 46.4067 494.153 47.06 496.72 47.06C498.26 47.06 499.777 46.7567 501.27 46.15C502.81 45.4967 504.21 44.6333 505.47 43.56C506.73 42.44 507.687 41.1567 508.34 39.71L510.86 42.23ZM523.691 2.4H561.491V5.76H527.051V53.64H562.891V57H523.691V2.4ZM533.071 9.68H561.491V13.04H536.431V23.82H557.921V27.18H533.071V9.68ZM533.071 30.89H557.921V34.25H536.431V46.36H562.891V49.72H533.071V30.89Z" fill="#00A6ED"/>
    </g>
    <defs>
    <filter id="filter0_d_1016_112" x="0.160156" y="0.929932" width="566.73" height="65.47" filterUnits="userSpaceOnUse" color-interpolation-filters="sRGB">
    <feFlood flood-opacity="0" result="BackgroundImageFix"/>
    <feColorMatrix in="SourceAlpha" type="matrix" values="0 0 0 0 0 0 0 0 0 0 0 0 0 0 0 0 0 0 127 0" result="hardAlpha"/>
    <feOffset dy="4"/>
    <feGaussianBlur stdDeviation="2"/>
    <feComposite in2="hardAlpha" operator="out"/>
    <feColorMatrix type="matrix" values="0 0 0 0 0 0 0 0 0 0 0 0 0 0 0 0 0 0 0.25 0"/>
    <feBlend mode="normal" in2="BackgroundImageFix" result="effect1_dropShadow_1016_112"/>
    <feBlend mode="normal" in="SourceGraphic" in2="effect1_dropShadow_1016_112" result="shape"/>
    </filter>
    </defs>
    </svg>
    