<svg width="49" height="48" viewBox="0 0 49 48" fill="none" xmlns="http://www.w3.org/2000/svg">
    <g clip-path="url(#clip0_1103_290)">
    <path d="M46.5 38C46.5 39.0609 46.0786 40.0783 45.3284 40.8284C44.5783 41.5786 43.5609 42 42.5 42H6.5C5.43913 42 4.42172 41.5786 3.67157 40.8284C2.92143 40.0783 2.5 39.0609 2.5 38V16C2.5 14.9391 2.92143 13.9217 3.67157 13.1716C4.42172 12.4214 5.43913 12 6.5 12H14.5L18.5 6H30.5L34.5 12H42.5C43.5609 12 44.5783 12.4214 45.3284 13.1716C46.0786 13.9217 46.5 14.9391 46.5 16V38Z" stroke="#00A6ED" stroke-width="4" stroke-linecap="round" stroke-linejoin="round"/>
    <path d="M24.5 34C28.9183 34 32.5 30.4183 32.5 26C32.5 21.5817 28.9183 18 24.5 18C20.0817 18 16.5 21.5817 16.5 26C16.5 30.4183 20.0817 34 24.5 34Z" stroke="#00A6ED" stroke-width="4" stroke-linecap="round" stroke-linejoin="round"/>
    </g>
    <defs>
    <clipPath id="clip0_1103_290">
    <rect width="48" height="48" fill="white" transform="translate(0.5)"/>
    </clipPath>
    </defs>
    </svg>
    