<svg width="32" height="32" viewBox="0 0 32 32" fill="none" xmlns="http://www.w3.org/2000/svg">
<path d="M28.0004 18.6882C27.9391 17.3655 27.0364 17.3335 25.8097 17.3335C23.9217 17.3335 23.6084 17.7842 23.6084 19.5562V21.7775C23.6084 23.5495 23.9217 24.0002 25.8097 24.0002C27.0364 24.0002 27.9391 23.9682 28.0004 22.6455M13.7271 20.6668C13.7271 22.5068 12.2524 24.0002 10.4337 24.0002C10.0217 24.0002 9.81639 24.0002 9.66439 23.9108C9.29772 23.6975 9.33505 23.2642 9.33505 22.8895V18.4442C9.33505 18.0695 9.29772 17.6362 9.66439 17.4228C9.81639 17.3335 10.0217 17.3335 10.4324 17.3335C12.2524 17.3335 13.7257 18.8268 13.7257 20.6668M18.6671 24.0002C17.6324 24.0002 17.1137 24.0002 16.7924 23.6748C16.4711 23.3495 16.4711 22.8255 16.4711 21.7775V19.5562C16.4711 18.5082 16.4711 17.9842 16.7924 17.6588C17.1137 17.3335 17.6324 17.3335 18.6671 17.3335C19.7017 17.3335 20.2204 17.3335 20.5417 17.6588C20.8631 17.9842 20.8631 18.5082 20.8631 19.5562V21.7775C20.8631 22.8255 20.8631 23.3495 20.5417 23.6748C20.2204 24.0002 19.7017 24.0002 18.6671 24.0002Z" stroke="#00A6ED" stroke-width="1.5" stroke-linecap="round" stroke-linejoin="round"/>
<path d="M20 29.3334H14.3027C9.956 29.3334 7.78 29.3334 6.27067 28.2694C5.84113 27.9682 5.45719 27.6067 5.13067 27.1961C4 25.7747 4 23.7294 4 19.6361V16.2427C4 12.2921 4 10.3161 4.62533 8.73875C5.63067 6.20141 7.756 4.20141 10.452 3.25475C12.1267 2.66675 14.224 2.66675 18.424 2.66675C20.8213 2.66675 22.0213 2.66675 22.9787 3.00275C24.5187 3.54408 25.7333 4.68675 26.308 6.13608C26.6667 7.03741 26.6667 8.16675 26.6667 10.4241V13.3334" stroke="#00A6ED" stroke-width="1.5" stroke-linecap="round" stroke-linejoin="round"/>
<path d="M4 16.0001C4 14.8215 4.46821 13.6911 5.30162 12.8577C6.13503 12.0243 7.26538 11.5561 8.444 11.5561C9.332 11.5561 10.3787 11.7107 11.2413 11.4801C11.6183 11.3786 11.9619 11.1799 12.2378 10.9037C12.5137 10.6276 12.7122 10.2838 12.8133 9.90675C13.044 9.04408 12.8893 7.99741 12.8893 7.10941C12.8897 5.93102 13.358 4.80102 14.1914 3.96789C15.0248 3.13477 16.1549 2.66675 17.3333 2.66675" stroke="#00A6ED" stroke-width="1.5" stroke-linecap="round" stroke-linejoin="round"/>
</svg>
