<svg width="32" height="32" viewBox="0 0 32 32" fill="none" xmlns="http://www.w3.org/2000/svg">
<path d="M25.6004 3.19995H20.8004V4.79995H11.2004V3.19995H6.40039V27.2H11.2004V25.6H20.8004V27.2H25.6004V3.19995ZM9.60039 4.79995V6.39995H8.00039V4.79995H9.60039ZM24.0004 4.79995V6.39995H22.4004V4.79995H24.0004ZM20.8004 6.39995V14.4H11.2004V6.39995H20.8004ZM9.60039 7.99995V9.59995H8.00039V7.99995H9.60039ZM24.0004 7.99995V9.59995H22.4004V7.99995H24.0004ZM9.60039 11.2V12.8H8.00039V11.2H9.60039ZM24.0004 11.2V12.8H22.4004V11.2H24.0004ZM9.60039 14.4V16H8.00039V14.4H9.60039ZM24.0004 14.4V16H22.4004V14.4H24.0004ZM20.8004 16V24H11.2004V16H20.8004ZM9.60039 17.6V19.2H8.00039V17.6H9.60039ZM24.0004 17.6V19.2H22.4004V17.6H24.0004ZM9.60039 20.8V22.4H8.00039V20.8H9.60039ZM24.0004 20.8V22.4H22.4004V20.8H24.0004ZM9.60039 24V25.6H8.00039V24H9.60039ZM24.0004 24V25.6H22.4004V24H24.0004Z" fill="#00A6ED"/>
</svg>
