<svg width="49" height="48" viewBox="0 0 49 48" fill="none" xmlns="http://www.w3.org/2000/svg">
    <g clip-path="url(#clip0_1103_313)">
    <path d="M6.5 42.0001H14.5L40.5 16.0001C41.5609 14.9393 42.1569 13.5004 42.1569 12.0001C42.1569 10.4998 41.5609 9.06098 40.5 8.00012C39.4391 6.93925 38.0003 6.34326 36.5 6.34326C34.9997 6.34326 33.5609 6.93925 32.5 8.00012L6.5 34.0001V42.0001Z" stroke="#00A6ED" stroke-width="3" stroke-linecap="round" stroke-linejoin="round"/>
    <path d="M29.5 11L37.5 19" stroke="#00A6ED" stroke-width="3" stroke-linecap="round" stroke-linejoin="round"/>
    <path d="M24.5 16L14.5 6L6.5 14L16.5 24" stroke="#00A6ED" stroke-width="3" stroke-linecap="round" stroke-linejoin="round"/>
    <path d="M14.5 16L11.5 19" stroke="#00A6ED" stroke-width="3" stroke-linecap="round" stroke-linejoin="round"/>
    <path d="M32.5 24L42.5 34L34.5 42L24.5 32" stroke="#00A6ED" stroke-width="3" stroke-linecap="round" stroke-linejoin="round"/>
    <path d="M32.5 34L29.5 37" stroke="#00A6ED" stroke-width="3" stroke-linecap="round" stroke-linejoin="round"/>
    </g>
    <defs>
    <clipPath id="clip0_1103_313">
    <rect width="48" height="48" fill="white" transform="translate(0.5)"/>
    </clipPath>
    </defs>
    </svg>
    