<svg width="32" height="32" viewBox="0 0 32 32" fill="none" xmlns="http://www.w3.org/2000/svg">
<g clip-path="url(#clip0_1225_502)">
<path d="M14.6327 4.00265C14.7107 4.34743 14.6487 4.70909 14.4602 5.00812C14.2716 5.30715 13.9721 5.51908 13.6273 5.59732C11.4102 6.10286 9.41262 7.30375 7.92616 9.02474C6.43971 10.7457 5.54217 12.8967 5.36453 15.1638C5.18689 17.431 5.73845 19.6955 6.93872 21.627C8.13898 23.5585 9.92513 25.0559 12.0365 25.9006C14.1479 26.7453 16.4739 26.8931 18.6752 26.3225C20.8765 25.7518 22.8378 24.4926 24.273 22.7286C25.7081 20.9645 26.5418 18.788 26.6526 16.5166C26.7634 14.2453 26.1453 11.998 24.8887 10.1027C24.7918 9.9568 24.7245 9.79328 24.6908 9.62144C24.6571 9.4496 24.6575 9.2728 24.6921 9.10114C24.762 8.75445 24.9668 8.44972 25.2614 8.25399C25.5559 8.05826 25.9162 7.98756 26.2629 8.05745C26.4345 8.09205 26.5977 8.16013 26.743 8.2578C26.8884 8.35546 27.0131 8.4808 27.11 8.62665C28.5629 10.8109 29.3363 13.3766 29.3327 16C29.3327 23.364 23.3633 29.3333 15.9993 29.3333C8.63535 29.3333 2.66602 23.364 2.66602 16C2.66602 9.65332 7.09935 4.34399 13.038 2.99732C13.3828 2.91927 13.7444 2.98132 14.0435 3.16985C14.3425 3.35837 14.5544 3.65792 14.6327 4.00265ZM17.3327 4.01865C17.3325 3.81864 17.3769 3.6211 17.4626 3.44039C17.5484 3.25968 17.6733 3.10033 17.8283 2.97393C17.9833 2.84752 18.1645 2.75723 18.3588 2.70961C18.553 2.662 18.7555 2.65825 18.9513 2.69865L19.1047 2.73999L23.0873 4.06799C23.4109 4.17492 23.6812 4.40167 23.8428 4.70167C24.0044 5.00168 24.045 5.35218 23.9563 5.68118C23.8676 6.01019 23.6562 6.29273 23.3657 6.4708C23.0751 6.64886 22.7275 6.70892 22.394 6.63865L22.2447 6.59865L19.9993 5.84932V16C19.999 16.8377 19.7356 17.6541 19.2464 18.3341C18.7572 19.014 18.0669 19.5233 17.2728 19.79C16.4787 20.0567 15.6209 20.0673 14.8204 19.8204C14.02 19.5735 13.3172 19.0816 12.8113 18.414C12.3054 17.7463 12.0218 16.9367 12.0006 16.0993C11.9794 15.2619 12.2217 14.439 12.6932 13.7466C13.1647 13.0542 13.8417 12.5273 14.6286 12.2403C15.4156 11.9532 16.2728 11.9205 17.0793 12.1467L17.3327 12.2267V4.01999V4.01865Z" fill="#00A6ED"/>
</g>
<defs>
<clipPath id="clip0_1225_502">
<rect width="32" height="32" fill="white"/>
</clipPath>
</defs>
</svg>
