<?xml version="1.0" encoding="UTF-8"?>
<svg xmlns="http://www.w3.org/2000/svg" version="1.1" width="480px" height="270px" style="shape-rendering:geometricPrecision; text-rendering:geometricPrecision; image-rendering:optimizeQuality; fill-rule:evenodd; clip-rule:evenodd" xmlns:xlink="http://www.w3.org/1999/xlink">
<g><path style="opacity:1" fill="#21aaee" d="M 358.5,114.5 C 359.043,112.657 358.376,110.99 356.5,109.5C 355.828,110.949 355.161,112.282 354.5,113.5C 351.997,114.454 349.664,115.787 347.5,117.5C 347.331,116.603 346.998,115.603 346.5,114.5C 345.784,115.311 344.95,115.978 344,116.5C 340.56,116.698 337.06,116.364 333.5,115.5C 328.092,118.018 322.759,118.018 317.5,115.5C 314.949,116.359 312.449,117.359 310,118.5C 307.883,116.968 306.216,114.968 305,112.5C 303.815,114.377 302.815,116.377 302,118.5C 300.984,117.366 300.317,117.699 300,119.5C 295.512,115.78 290.845,115.78 286,119.5C 283.018,117.497 279.851,117.497 276.5,119.5C 275.446,119.32 274.446,118.987 273.5,118.5C 271.684,121.064 269.851,121.064 268,118.5C 267.481,119.516 266.647,120.182 265.5,120.5C 261.878,118.029 258.211,118.029 254.5,120.5C 250.358,118.522 246.858,119.189 244,122.5C 240.986,120.481 238.32,118.148 236,115.5C 235.221,117.906 236.054,119.573 238.5,120.5C 237.264,121.357 235.931,122.023 234.5,122.5C 231.112,121.664 227.612,121.33 224,121.5C 222.449,122.054 220.949,122.72 219.5,123.5C 217.896,123.061 216.396,122.394 215,121.5C 213.374,122.289 211.874,123.289 210.5,124.5C 208.571,123.62 206.737,122.62 205,121.5C 203.532,122.628 201.865,123.294 200,123.5C 196.092,122.599 192.259,122.265 188.5,122.5C 185.549,125.195 182.882,124.862 180.5,121.5C 177.382,122.559 174.382,123.892 171.5,125.5C 170.784,123.518 169.617,121.851 168,120.5C 165.456,121.883 162.956,123.383 160.5,125C 157.358,124.97 154.192,124.803 151,124.5C 147.754,126.359 144.421,128.025 141,129.5C 139.521,128.244 137.855,127.244 136,126.5C 132.613,127.585 129.28,128.919 126,130.5C 120.504,130.118 115.004,129.785 109.5,129.5C 105.32,131.116 101.32,132.449 97.5,133.5C 96.2054,132.902 94.8721,132.402 93.5,132C 94.7112,131.107 94.7112,130.274 93.5,129.5C 90.8438,130.953 88.1771,132.286 85.5,133.5C 84.0267,132.929 82.36,132.929 80.5,133.5C 78.0074,134.747 75.5074,134.747 73,133.5C 68.0936,136.709 64.2603,135.709 61.5,130.5C 63.5346,128.062 65.2013,125.395 66.5,122.5C 69.3125,123.219 72.1459,123.886 75,124.5C 76.221,123.728 77.221,122.728 78,121.5C 77.3829,123.095 77.7163,124.428 79,125.5C 79.4828,124.552 79.6495,123.552 79.5,122.5C 82.2776,122.978 84.2776,121.978 85.5,119.5C 86.086,119.709 86.586,120.043 87,120.5C 88.916,117.967 90.916,117.967 93,120.5C 93.9147,119.672 94.5814,118.672 95,117.5C 96.8846,119.715 98.7179,119.382 100.5,116.5C 107.067,116.6 113.567,116.6 120,116.5C 121.89,116.215 123.223,115.215 124,113.5C 126.232,114.408 128.399,115.408 130.5,116.5C 132.933,114.953 135.599,113.953 138.5,113.5C 140.374,113.39 141.874,114.056 143,115.5C 147.464,112.075 152.297,111.741 157.5,114.5C 158.845,113.653 159.845,112.487 160.5,111C 162.377,110.424 164.211,110.591 166,111.5C 167.897,111.104 169.397,110.104 170.5,108.5C 172.304,110.65 174.471,110.984 177,109.5C 179.062,110.729 181.229,111.729 183.5,112.5C 185.626,112.27 187.293,111.27 188.5,109.5C 189.88,111.665 191.547,111.999 193.5,110.5C 194.167,110.5 194.833,110.5 195.5,110.5C 199.695,109.768 204.028,109.768 208.5,110.5C 210.564,108.022 212.564,108.022 214.5,110.5C 218.807,108.603 223.307,107.27 228,106.5C 228.674,107.578 229.674,108.245 231,108.5C 234.689,107.926 238.356,107.259 242,106.5C 244.151,106.765 245.818,107.765 247,109.5C 248.851,106.936 250.684,106.936 252.5,109.5C 253.478,109.023 254.311,108.357 255,107.5C 256.049,108.517 257.216,108.684 258.5,108C 260.421,106.412 262.421,104.912 264.5,103.5C 265.167,104.167 265.833,104.833 266.5,105.5C 268.725,104.899 270.891,104.566 273,104.5C 275.601,108.438 278.101,108.438 280.5,104.5C 283.313,105.219 286.146,105.886 289,106.5C 289.95,105.978 290.784,105.311 291.5,104.5C 296.03,106.127 300.364,105.793 304.5,103.5C 306.668,105.455 309.002,106.121 311.5,105.5C 314.269,103.898 317.269,102.898 320.5,102.5C 321.548,103.383 322.715,104.05 324,104.5C 326.46,103.474 328.96,103.474 331.5,104.5C 334.818,103.511 338.152,102.511 341.5,101.5C 342.741,102.037 343.908,102.704 345,103.5C 346.73,102.351 348.396,102.351 350,103.5C 353.35,101.552 356.85,101.552 360.5,103.5C 370.446,103.606 379.946,103.272 389,102.5C 391.496,104.64 393.83,104.64 396,102.5C 398.333,103.833 400.667,103.833 403,102.5C 408.52,103.589 413.853,104.922 419,106.5C 421.522,104.338 424.355,104.005 427.5,105.5C 427.291,106.086 426.957,106.586 426.5,107C 414.698,108.767 402.865,110.6 391,112.5C 388.966,112.646 387.299,111.98 386,110.5C 385.517,111.448 385.351,112.448 385.5,113.5C 381.785,113.804 378.285,113.137 375,111.5C 372.555,116.161 369.722,116.494 366.5,112.5C 364.319,115.379 361.652,116.045 358.5,114.5 Z"/></g>
<g><path style="opacity:1" fill="#98daf7" d="M 195.5,110.5 C 194.833,110.5 194.167,110.5 193.5,110.5C 194.167,107.833 194.833,107.833 195.5,110.5 Z"/></g>
<g><path style="opacity:1" fill="#a0dbf8" d="M 345.5,110.5 C 347.337,110.639 347.67,111.306 346.5,112.5C 345.702,112.043 345.369,111.376 345.5,110.5 Z"/></g>
<g><path style="opacity:1" fill="#98d8f7" d="M 358.5,114.5 C 356.901,114.768 355.568,114.434 354.5,113.5C 355.161,112.282 355.828,110.949 356.5,109.5C 358.376,110.99 359.043,112.657 358.5,114.5 Z"/></g>
<g><path style="opacity:1" fill="#9ddcf8" d="M 176.5,116.5 C 178.337,116.639 178.67,117.306 177.5,118.5C 176.702,118.043 176.369,117.376 176.5,116.5 Z"/></g>
</svg>
