<svg width="168" height="16" viewBox="0 0 168 16" fill="none" xmlns="http://www.w3.org/2000/svg">
    <path fill-rule="evenodd" clip-rule="evenodd" d="M136.016 6.14749C136.264 5.27597 135.96 4.48767 135.104 3.78307C134.797 4.46828 134.493 5.09863 134.191 5.67461C133.049 6.12574 131.985 6.75609 130.997 7.56614C130.92 7.14197 130.768 6.66908 130.541 6.14749C130.214 6.531 129.834 6.84641 129.4 7.09326C127.831 7.18689 126.234 7.02895 124.609 6.62038C122.142 7.8111 119.708 7.8111 117.309 6.62038C116.145 7.02658 115.004 7.49947 113.887 8.03903C112.921 7.31457 112.16 6.3688 111.605 5.20172C111.064 6.08933 110.608 7.03509 110.236 8.03903C109.773 7.50278 109.468 7.66025 109.324 8.51191C107.276 6.75278 105.146 6.75278 102.936 8.51191C101.575 7.56472 100.13 7.56472 98.6011 8.51191C98.1202 8.42679 97.6639 8.26932 97.2322 8.03903C96.4036 9.2515 95.5673 9.2515 94.7227 8.03903C94.4859 8.51948 94.1053 8.83442 93.582 8.9848C91.9293 7.8163 90.2561 7.8163 88.5628 8.9848C86.6729 8.04943 85.0759 8.36484 83.7719 9.93056C82.3966 8.97581 81.1802 7.87257 80.1216 6.62038C79.7661 7.75813 80.1462 8.54643 81.2623 8.9848C80.6983 9.39006 80.0901 9.705 79.4372 9.93056C77.8913 9.53523 76.2943 9.37729 74.6462 9.45768C73.9385 9.71966 73.2541 10.0346 72.5929 10.4034C71.861 10.1959 71.1766 9.88044 70.5396 9.45768C69.7977 9.83078 69.1133 10.3037 68.4863 10.8763C67.6062 10.4602 66.7693 9.98731 65.9768 9.45768C65.307 9.99109 64.5463 10.306 63.6954 10.4034C61.9122 9.97738 60.1633 9.81944 58.4481 9.93056C57.1016 11.205 55.8847 11.0475 54.7978 9.45768C53.3751 9.95846 52.0063 10.5888 50.6913 11.3492C50.3646 10.412 49.8321 9.62366 49.0943 8.9848C47.9335 9.63879 46.7928 10.3481 45.6721 11.1128C44.2385 11.0986 42.7939 11.0196 41.3374 10.8763C39.8563 11.7554 38.3355 12.5432 36.7746 13.2408C36.0997 12.6468 35.3396 12.1739 34.4932 11.8221C32.9477 12.3352 31.4269 12.966 29.9303 13.7136C27.4226 13.533 24.913 13.3755 22.4016 13.2408C20.4944 14.0049 18.6692 14.6353 16.9262 15.1323C16.3355 14.8495 15.7272 14.6131 15.1011 14.423C15.6537 14.0007 15.6537 13.6068 15.1011 13.2408C13.8891 13.9279 12.6723 14.5582 11.4508 15.1323C10.7786 14.8623 10.0181 14.8623 9.1694 15.1323C8.03207 15.722 6.89136 15.722 5.74727 15.1323C3.50856 16.6498 1.75948 16.1769 0.5 13.7136C1.42836 12.5607 2.18884 11.2996 2.78142 9.93056C4.06472 10.2706 5.35756 10.586 6.65984 10.8763C7.21696 10.5113 7.67324 10.0384 8.02869 9.45768C7.74712 10.2119 7.89924 10.8423 8.48497 11.3492C8.70527 10.9009 8.78133 10.428 8.71311 9.93056C9.98049 10.1566 10.8931 9.68372 11.4508 8.51191C11.7182 8.61074 11.9463 8.76869 12.1352 8.9848C13.0095 7.78698 13.9221 7.78698 14.873 8.9848C15.2903 8.59325 15.5945 8.12036 15.7855 7.56614C16.6454 8.61358 17.4819 8.45611 18.2951 7.09326C21.2915 7.14055 24.2573 7.14055 27.1926 7.09326C28.055 6.95849 28.6632 6.4856 29.0178 5.67461C30.0362 6.10399 31.025 6.57687 31.9836 7.09326C33.0937 6.36171 34.3102 5.88882 35.6339 5.67461C36.489 5.62259 37.1734 5.93753 37.6872 6.62038C39.724 5.00075 41.9292 4.8428 44.3033 6.14749C44.917 5.74696 45.3733 5.19558 45.6721 4.4924C46.5286 4.22002 47.3654 4.29899 48.1817 4.72884C49.0473 4.54158 49.7317 4.06869 50.235 3.31019C51.0581 4.32689 52.0469 4.48483 53.2008 3.78307C54.1417 4.36425 55.1304 4.83713 56.1667 5.20172C57.1367 5.09296 57.8974 4.62008 58.4481 3.78307C59.0778 4.80687 59.8384 4.96481 60.7295 4.25596C61.0339 4.25596 61.3377 4.25596 61.6421 4.25596C63.5562 3.9098 65.5333 3.9098 67.5738 4.25596C68.5155 3.08415 69.4281 3.08415 70.3115 4.25596C72.2767 3.35889 74.33 2.72854 76.4713 2.36442C76.7788 2.87419 77.2351 3.1896 77.8402 3.31019C79.5234 3.03875 81.1966 2.72334 82.8593 2.36442C83.8408 2.48973 84.6014 2.96262 85.1407 3.78307C85.9853 2.5706 86.8217 2.5706 87.6503 3.78307C88.0965 3.55751 88.4766 3.24257 88.791 2.8373C89.2696 3.31823 89.8021 3.3972 90.388 3.07375C91.2645 2.32281 92.1771 1.61348 93.1257 0.945768C93.43 1.26118 93.7339 1.57612 94.0383 1.89154C95.0535 1.60733 96.0418 1.44986 97.0041 1.41865C98.1909 3.28087 99.3316 3.28087 100.426 1.41865C101.71 1.75866 103.002 2.07407 104.305 2.36442C104.738 2.11757 105.119 1.80216 105.445 1.41865C107.512 2.18803 109.49 2.03009 111.377 0.945768C112.366 1.87026 113.431 2.1852 114.571 1.89154C115.834 1.13398 117.203 0.661092 118.678 0.472884C119.156 0.890441 119.688 1.20585 120.275 1.41865C121.397 0.933473 122.538 0.933473 123.697 1.41865C125.211 0.95097 126.732 0.478086 128.26 0C128.826 0.253939 129.358 0.569352 129.857 0.945768C130.646 0.402424 131.406 0.402424 132.138 0.945768C133.667 0.02459 135.264 0.02459 136.929 0.945768C141.467 0.995894 145.802 0.83795 149.933 0.472884C151.072 1.48486 152.137 1.48486 153.127 0.472884C154.192 1.10324 155.257 1.10324 156.321 0.472884C158.84 0.987855 161.273 1.61821 163.622 2.36442C164.772 1.34204 166.065 1.18457 167.5 1.89154C167.405 2.16865 167.252 2.40509 167.044 2.60086C161.659 3.43645 156.259 4.30324 150.846 5.20172C149.918 5.27076 149.157 4.95582 148.564 4.25596C148.344 4.70425 148.268 5.17713 148.336 5.67461C146.641 5.81836 145.044 5.50295 143.545 4.72884C142.429 6.93295 141.137 7.09042 139.667 5.20172C138.672 6.56316 137.455 6.8781 136.016 6.14749Z" fill="#21AAEE"/>
    </svg>
    