<svg xmlns="http://www.w3.org/2000/svg" xmlns:xlink="http://www.w3.org/1999/xlink" width="500" zoomAndPan="magnify" viewBox="0 0 375 374.999991" height="500" preserveAspectRatio="xMidYMid meet" version="1.0"><defs><g/><clipPath id="6684ef6faf"><path d="M 159 196 L 267 196 L 267 287.757812 L 159 287.757812 Z M 159 196 " clip-rule="nonzero"/></clipPath><clipPath id="b0215827f4"><path d="M 85.363281 95 L 181 95 L 181 183 L 85.363281 183 Z M 85.363281 95 " clip-rule="nonzero"/></clipPath><clipPath id="dcef9e83d8"><path d="M 197 95 L 288.613281 95 L 288.613281 181 L 197 181 Z M 197 95 " clip-rule="nonzero"/></clipPath></defs><path fill="#000000" d="M 166.59375 258.03125 C 165.507812 256.761719 164.410156 255.5 163.292969 254.242188 C 163.910156 254.976562 165.023438 256.308594 166.59375 258.03125 Z M 166.59375 258.03125 " fill-opacity="1" fill-rule="nonzero"/><path fill="#000000" d="M 162.691406 253.527344 C 160.667969 251.226562 158.625 248.933594 156.519531 246.714844 C 148.277344 238.042969 139.726562 229.644531 131.320312 221.117188 C 128.289062 218.03125 128.722656 216.917969 132.800781 215.378906 C 140.289062 212.566406 146.238281 215.273438 152.035156 219.925781 C 152.578125 220.355469 153.148438 220.75 153.742188 221.113281 C 154.335938 221.472656 154.949219 221.796875 155.582031 222.082031 C 156.214844 222.367188 156.863281 222.613281 157.527344 222.820312 C 158.191406 223.023438 158.863281 223.1875 159.546875 223.3125 C 160.230469 223.433594 160.917969 223.515625 161.613281 223.554688 C 162.308594 223.589844 163 223.585938 163.691406 223.539062 C 164.386719 223.492188 165.074219 223.402344 165.757812 223.273438 C 166.4375 223.140625 167.109375 222.96875 167.769531 222.753906 C 168.429688 222.539062 169.078125 222.285156 169.707031 221.992188 C 170.335938 221.699219 170.945312 221.367188 171.535156 221 C 172.121094 220.632812 172.6875 220.230469 173.226562 219.792969 C 173.765625 219.355469 174.277344 218.882812 174.757812 218.382812 C 175.238281 217.882812 175.6875 217.355469 176.105469 216.800781 C 176.523438 216.246094 176.902344 215.664062 177.25 215.0625 C 177.59375 214.460938 177.902344 213.839844 178.171875 213.199219 C 178.441406 212.558594 178.667969 211.902344 178.859375 211.234375 C 179.878906 207.46875 180.414062 203.632812 180.46875 199.734375 C 180.710938 183.6875 180.65625 167.640625 180.808594 151.59375 C 180.867188 145.703125 183.363281 143.269531 188.839844 143.335938 C 193.660156 143.394531 195.847656 145.894531 195.878906 151.609375 C 195.960938 165.429688 195.984375 179.25 196.050781 193.066406 C 196.050781 194.320312 195.757812 195.796875 196.3125 196.765625 C 197.058594 198.082031 198.488281 199 199.628906 200.089844 C 200.699219 198.945312 202.066406 197.953125 202.742188 196.621094 C 203.277344 195.601562 202.953125 194.179688 203.148438 192.914062 C 203.855469 188.246094 207 185.367188 211.195312 185.484375 C 215.390625 185.597656 218.511719 188.589844 218.988281 193.285156 C 219.210938 195.359375 218.949219 197.496094 219.316406 199.539062 C 219.484375 200.503906 220.519531 201.878906 221.332031 201.976562 C 222.144531 202.074219 223.550781 201.253906 224.25 200.441406 C 224.949219 199.625 225.3125 198.195312 225.875 197.066406 C 228.207031 192.1875 232.882812 190.480469 237.71875 192.921875 C 242.554688 195.359375 242.390625 199.9375 242.59375 204.4375 C 242.660156 205.796875 243.789062 207.105469 244.433594 208.429688 C 245.542969 207.328125 246.546875 206.132812 247.441406 204.84375 C 248.035156 203.828125 247.742188 202.210938 248.441406 201.351562 C 248.601562 201.15625 248.765625 200.984375 248.925781 200.804688 L 245.171875 197.066406 C 246.402344 195.832031 247.804688 194.851562 249.382812 194.117188 C 248.289062 194.101562 247.261719 193.835938 246.304688 193.3125 C 245.34375 192.789062 244.558594 192.074219 243.953125 191.164062 C 239.976562 185.710938 234.605469 183.945312 228.144531 186.710938 C 225.703125 187.765625 223.957031 186.953125 222.453125 184.792969 C 218.582031 179.101562 212.925781 177.410156 206.667969 179.183594 C 202.246094 180.425781 201.945312 178.589844 201.984375 175.214844 C 202.089844 166.84375 202.164062 158.472656 202.058594 150.097656 C 202.066406 149.207031 201.988281 148.324219 201.820312 147.449219 C 201.65625 146.570312 201.410156 145.71875 201.078125 144.890625 C 200.746094 144.0625 200.339844 143.277344 199.855469 142.527344 C 199.371094 141.78125 198.816406 141.085938 198.195312 140.445312 C 197.574219 139.804688 196.898438 139.230469 196.167969 138.722656 C 195.433594 138.214844 194.660156 137.78125 193.84375 137.425781 C 193.027344 137.066406 192.183594 136.792969 191.3125 136.601562 C 190.441406 136.40625 189.5625 136.300781 188.667969 136.28125 C 181.410156 135.945312 175.476562 141.335938 174.746094 149.007812 C 174.574219 150.804688 174.625 152.625 174.632812 154.441406 C 174.710938 170.070312 174.964844 185.703125 174.753906 201.324219 C 174.703125 204.765625 173.828125 208.746094 171.925781 211.503906 C 167.332031 218.113281 160.375 218.003906 152.699219 212 C 151.800781 211.285156 150.855469 210.640625 149.863281 210.070312 C 148.867188 209.496094 147.835938 208.996094 146.769531 208.574219 C 145.703125 208.152344 144.613281 207.808594 143.496094 207.546875 C 142.378906 207.285156 141.246094 207.105469 140.105469 207.007812 C 138.960938 206.910156 137.816406 206.898438 136.671875 206.972656 C 135.527344 207.042969 134.394531 207.199219 133.269531 207.4375 C 132.148438 207.675781 131.050781 207.992188 129.972656 208.390625 C 128.898438 208.792969 127.855469 209.269531 126.851562 209.820312 C 121.023438 213.070312 119.902344 219.234375 124.332031 224.160156 C 126.191406 226.230469 128.160156 228.222656 130.175781 230.125 C 140.050781 239.515625 149.925781 248.910156 159.804688 258.308594 C 159.066406 257.414062 158.625 256.835938 158.511719 256.683594 Z M 162.691406 253.527344 " fill-opacity="1" fill-rule="nonzero"/><path fill="#00b0dc" d="M 167.152344 182.3125 C 172.324219 178.664062 171.820312 173.371094 171.21875 168.144531 L 170.070312 167.386719 C 164.738281 172.84375 159.332031 178.214844 154.15625 183.808594 C 153.269531 184.769531 153.097656 186.644531 153.074219 188.101562 C 153 193.398438 153.132812 198.707031 153.179688 204.007812 C 153.230469 208.550781 155.277344 210.910156 161.136719 212.292969 C 161.136719 207.152344 161.4375 202.179688 161.066406 197.261719 C 160.570312 191.125 161.894531 186.035156 167.152344 182.3125 Z M 167.152344 182.3125 " fill-opacity="1" fill-rule="nonzero"/><path fill="#000000" d="M 205.910156 168.324219 L 205.910156 174.933594 L 212.984375 174.933594 Z M 205.910156 168.324219 " fill-opacity="1" fill-rule="nonzero"/><path fill="#000000" d="M 251.429688 194.179688 C 254.410156 194.179688 257.347656 194.523438 260.242188 195.214844 L 260.097656 194.863281 L 259.390625 194.417969 C 258.628906 193.996094 257.828125 193.667969 256.988281 193.441406 C 256.148438 193.210938 255.292969 193.082031 254.421875 193.054688 C 253.550781 193.03125 252.691406 193.109375 251.839844 193.289062 C 250.988281 193.46875 250.167969 193.746094 249.382812 194.125 C 250.023438 194.171875 250.707031 194.179688 251.429688 194.179688 Z M 251.429688 194.179688 " fill-opacity="1" fill-rule="nonzero"/><path fill="#000000" d="M 162.691406 253.527344 L 163.292969 254.210938 C 162.941406 253.78125 162.746094 253.527344 162.730469 253.503906 Z M 162.691406 253.527344 " fill-opacity="1" fill-rule="nonzero"/><g clip-path="url(#6684ef6faf)"><path fill="#000000" d="M 248.894531 200.820312 C 252 197.796875 254.722656 198.195312 255.933594 198.609375 C 270.078125 233.484375 250.820312 261.542969 249.527344 263.363281 C 237.433594 276.53125 224.332031 282.871094 210.570312 282.238281 C 190.570312 281.304688 173.84375 265.851562 166.59375 258 C 168.601562 260.324219 170.609375 262.640625 172.664062 264.917969 C 173.941406 266.339844 176.03125 267.191406 176.90625 268.769531 C 177.566406 269.949219 176.90625 271.875 176.777344 273.476562 C 175.785156 272.71875 174.761719 271.996094 173.800781 271.199219 C 172.332031 269.996094 170.84375 268.808594 169.46875 267.5 L 159.804688 258.308594 C 164.957031 264.535156 184.726562 286.3125 210.292969 287.515625 C 211.03125 287.554688 211.753906 287.570312 212.488281 287.570312 C 227.117188 287.570312 240.9375 280.597656 253.527344 266.820312 L 253.699219 266.625 C 254.632812 265.363281 276.160156 235.855469 261.242188 197.660156 C 256.984375 195.609375 252.570312 196.660156 248.894531 200.820312 Z M 248.894531 200.820312 " fill-opacity="1" fill-rule="nonzero"/></g><path fill="#000000" d="M 248.863281 200.847656 C 252.535156 196.683594 256.949219 195.636719 261.210938 197.683594 C 260.949219 197.007812 260.671875 196.335938 260.398438 195.660156 L 260.21875 195.238281 C 257.320312 194.550781 254.382812 194.203125 251.40625 194.203125 C 250.683594 194.203125 250 194.203125 249.359375 194.148438 C 247.792969 194.875 246.394531 195.847656 245.171875 197.066406 Z M 248.863281 200.847656 " fill-opacity="1" fill-rule="nonzero"/><path fill="#000000" d="M 173.800781 271.199219 C 174.761719 272.011719 175.785156 272.71875 176.777344 273.476562 C 176.875 271.851562 177.589844 269.949219 176.90625 268.769531 C 176.03125 267.191406 173.941406 266.332031 172.664062 264.917969 C 170.609375 262.640625 168.601562 260.324219 166.59375 258 C 165.03125 256.308594 163.910156 254.976562 163.292969 254.210938 L 162.691406 253.527344 L 158.519531 256.691406 C 158.632812 256.835938 159.074219 257.414062 159.8125 258.316406 L 169.476562 267.507812 C 170.84375 268.808594 172.339844 269.996094 173.800781 271.199219 Z M 173.800781 271.199219 " fill-opacity="1" fill-rule="nonzero"/><path fill="#00b0dc" d="M 188.246094 66.332031 C 187.460938 66.324219 186.683594 66.394531 185.914062 66.539062 C 185.140625 66.683594 184.390625 66.902344 183.660156 67.195312 C 182.933594 67.484375 182.238281 67.84375 181.582031 68.273438 C 180.921875 68.699219 180.3125 69.1875 179.75 69.734375 C 179.1875 70.285156 178.683594 70.878906 178.238281 71.527344 C 177.789062 72.171875 177.410156 72.855469 177.097656 73.574219 C 176.789062 74.296875 176.546875 75.039062 176.382812 75.808594 C 176.214844 76.574219 176.125 77.351562 176.109375 78.136719 C 176.085938 78.957031 176.144531 79.769531 176.285156 80.578125 C 176.425781 81.386719 176.648438 82.171875 176.945312 82.933594 C 177.246094 83.699219 177.621094 84.425781 178.066406 85.113281 C 178.515625 85.800781 179.023438 86.4375 179.601562 87.019531 C 180.175781 87.605469 180.804688 88.125 181.488281 88.582031 C 182.167969 89.039062 182.886719 89.421875 183.648438 89.734375 C 184.40625 90.042969 185.1875 90.277344 185.996094 90.429688 C 186.800781 90.578125 187.613281 90.648438 188.433594 90.636719 C 189.21875 90.609375 189.992188 90.507812 190.757812 90.335938 C 191.523438 90.160156 192.265625 89.917969 192.984375 89.605469 C 193.703125 89.289062 194.386719 88.914062 195.035156 88.472656 C 195.683594 88.027344 196.285156 87.53125 196.839844 86.976562 C 197.390625 86.421875 197.890625 85.820312 198.332031 85.167969 C 198.773438 84.519531 199.148438 83.835938 199.460938 83.117188 C 199.773438 82.398438 200.015625 81.65625 200.1875 80.890625 C 200.363281 80.125 200.460938 79.351562 200.488281 78.566406 C 200.59375 72.007812 194.921875 66.339844 188.246094 66.332031 Z M 193.035156 78.527344 C 193.035156 78.734375 193.019531 78.941406 192.992188 79.144531 C 192.964844 79.351562 192.921875 79.554688 192.867188 79.753906 C 192.8125 79.953125 192.746094 80.148438 192.664062 80.339844 C 192.585938 80.53125 192.492188 80.71875 192.386719 80.898438 C 192.285156 81.074219 192.167969 81.246094 192.039062 81.410156 C 191.914062 81.574219 191.777344 81.730469 191.628906 81.875 C 191.480469 82.023438 191.324219 82.160156 191.160156 82.285156 C 190.996094 82.410156 190.824219 82.523438 190.644531 82.628906 C 190.464844 82.730469 190.277344 82.820312 190.085938 82.902344 C 189.894531 82.980469 189.695312 83.046875 189.496094 83.097656 C 189.296875 83.152344 189.09375 83.191406 188.886719 83.21875 C 188.679688 83.246094 188.476562 83.257812 188.265625 83.257812 C 188.058594 83.257812 187.855469 83.242188 187.648438 83.214844 C 187.441406 83.1875 187.238281 83.144531 187.039062 83.09375 C 186.839844 83.039062 186.644531 82.972656 186.453125 82.890625 C 186.261719 82.8125 186.074219 82.71875 185.894531 82.617188 C 185.714844 82.511719 185.542969 82.394531 185.378906 82.269531 C 185.214844 82.144531 185.058594 82.007812 184.914062 81.859375 C 184.765625 81.710938 184.628906 81.558594 184.503906 81.390625 C 184.378906 81.226562 184.261719 81.054688 184.160156 80.875 C 184.054688 80.695312 183.964844 80.511719 183.886719 80.320312 C 183.804688 80.125 183.738281 79.929688 183.6875 79.730469 C 183.632812 79.53125 183.59375 79.328125 183.566406 79.121094 C 183.539062 78.914062 183.523438 78.707031 183.523438 78.5 C 183.523438 78.292969 183.539062 78.085938 183.566406 77.882812 C 183.59375 77.675781 183.632812 77.472656 183.6875 77.273438 C 183.738281 77.074219 183.804688 76.875 183.886719 76.683594 C 183.964844 76.492188 184.054688 76.308594 184.160156 76.128906 C 184.261719 75.949219 184.378906 75.773438 184.503906 75.609375 C 184.628906 75.445312 184.765625 75.289062 184.914062 75.144531 C 185.058594 74.996094 185.214844 74.859375 185.378906 74.734375 C 185.542969 74.605469 185.714844 74.492188 185.894531 74.386719 C 186.074219 74.285156 186.261719 74.191406 186.453125 74.113281 C 186.644531 74.03125 186.839844 73.964844 187.039062 73.910156 C 187.238281 73.855469 187.441406 73.816406 187.648438 73.789062 C 187.855469 73.761719 188.058594 73.746094 188.265625 73.746094 C 188.476562 73.746094 188.679688 73.757812 188.886719 73.785156 C 189.09375 73.8125 189.296875 73.851562 189.496094 73.90625 C 189.695312 73.957031 189.894531 74.023438 190.085938 74.101562 C 190.277344 74.179688 190.464844 74.273438 190.644531 74.375 C 190.824219 74.476562 190.996094 74.59375 191.160156 74.71875 C 191.324219 74.84375 191.480469 74.980469 191.628906 75.125 C 191.777344 75.273438 191.914062 75.425781 192.039062 75.589844 C 192.167969 75.753906 192.285156 75.925781 192.386719 76.105469 C 192.492188 76.285156 192.585938 76.46875 192.664062 76.660156 C 192.746094 76.851562 192.8125 77.050781 192.867188 77.25 C 192.921875 77.449219 192.964844 77.652344 192.992188 77.859375 C 193.019531 78.0625 193.035156 78.269531 193.035156 78.476562 Z M 193.035156 78.527344 " fill-opacity="1" fill-rule="nonzero"/><path fill="#00b0dc" d="M 128.507812 151.210938 C 129.316406 151.210938 130.113281 151.132812 130.902344 150.972656 C 131.691406 150.816406 132.457031 150.582031 133.199219 150.273438 C 133.945312 149.960938 134.648438 149.582031 135.316406 149.132812 C 135.984375 148.683594 136.601562 148.171875 137.167969 147.597656 C 137.734375 147.027344 138.238281 146.40625 138.683594 145.734375 C 139.125 145.058594 139.5 144.351562 139.800781 143.605469 C 140.105469 142.859375 140.332031 142.089844 140.484375 141.300781 C 140.632812 140.507812 140.703125 139.710938 140.699219 138.90625 C 140.691406 138.101562 140.601562 137.304688 140.4375 136.515625 C 140.273438 135.726562 140.03125 134.964844 139.714844 134.222656 C 139.398438 133.484375 139.011719 132.78125 138.554688 132.117188 C 138.101562 131.453125 137.582031 130.839844 137.007812 130.277344 C 136.429688 129.71875 135.800781 129.21875 135.125 128.78125 C 134.449219 128.34375 133.738281 127.976562 132.988281 127.679688 C 132.242188 127.386719 131.46875 127.164062 130.675781 127.023438 C 129.886719 126.878906 129.085938 126.8125 128.28125 126.828125 C 127.476562 126.84375 126.679688 126.9375 125.894531 127.109375 C 125.105469 127.28125 124.34375 127.53125 123.609375 127.851562 C 122.871094 128.175781 122.171875 128.570312 121.511719 129.03125 C 120.851562 129.492188 120.246094 130.015625 119.6875 130.597656 C 119.132812 131.179688 118.636719 131.808594 118.207031 132.492188 C 117.777344 133.171875 117.414062 133.886719 117.125 134.636719 C 116.835938 135.390625 116.625 136.160156 116.488281 136.953125 C 116.351562 137.75 116.292969 138.546875 116.316406 139.351562 C 116.347656 140.136719 116.453125 140.910156 116.628906 141.671875 C 116.808594 142.4375 117.058594 143.175781 117.375 143.894531 C 117.695312 144.609375 118.078125 145.289062 118.527344 145.933594 C 118.976562 146.574219 119.484375 147.171875 120.046875 147.71875 C 120.605469 148.265625 121.214844 148.753906 121.871094 149.183594 C 122.527344 149.613281 123.214844 149.980469 123.941406 150.277344 C 124.667969 150.578125 125.414062 150.804688 126.179688 150.964844 C 126.949219 151.121094 127.726562 151.203125 128.507812 151.210938 Z M 124.746094 139.433594 C 125.039062 138.265625 125.660156 137.3125 126.605469 136.574219 C 126.773438 136.375 126.960938 136.199219 127.164062 136.039062 C 127.367188 135.878906 127.582031 135.742188 127.8125 135.628906 C 128.042969 135.511719 128.28125 135.421875 128.53125 135.355469 C 128.78125 135.289062 129.035156 135.246094 129.292969 135.230469 C 129.550781 135.214844 129.804688 135.226562 130.0625 135.261719 C 130.316406 135.296875 130.566406 135.359375 130.808594 135.445312 C 131.050781 135.53125 131.28125 135.644531 131.503906 135.777344 C 131.722656 135.910156 131.929688 136.0625 132.117188 136.238281 C 132.308594 136.414062 132.476562 136.605469 132.628906 136.8125 C 132.78125 137.023438 132.90625 137.246094 133.015625 137.480469 C 133.121094 137.714844 133.203125 137.957031 133.257812 138.210938 C 133.316406 138.460938 133.347656 138.714844 133.351562 138.972656 C 133.355469 139.230469 133.335938 139.488281 133.289062 139.742188 C 133.242188 139.996094 133.171875 140.242188 133.078125 140.480469 C 132.980469 140.71875 132.863281 140.945312 132.71875 141.160156 C 132.578125 141.375 132.414062 141.574219 132.234375 141.757812 C 132.050781 141.941406 131.851562 142.101562 131.636719 142.246094 C 131.421875 142.386719 131.195312 142.507812 130.957031 142.605469 C 130.71875 142.699219 130.472656 142.773438 130.21875 142.820312 C 129.964844 142.867188 129.707031 142.886719 129.449219 142.882812 C 129.191406 142.875 128.9375 142.847656 128.6875 142.789062 C 128.433594 142.734375 128.191406 142.652344 127.957031 142.546875 C 127.722656 142.441406 127.5 142.3125 127.289062 142.164062 C 127.082031 142.011719 126.886719 141.84375 126.714844 141.652344 C 125.738281 141.117188 124.648438 139.960938 124.746094 139.433594 Z M 124.746094 139.433594 " fill-opacity="1" fill-rule="nonzero"/><path fill="#00b0dc" d="M 126.714844 141.652344 C 126.183594 141.082031 125.859375 140.414062 125.738281 139.644531 C 125.726562 139.578125 125.726562 139.511719 125.738281 139.441406 C 125.730469 139.3125 125.730469 139.183594 125.738281 139.050781 C 125.75 138.125 126.058594 137.3125 126.664062 136.613281 C 125.714844 137.351562 125.09375 138.308594 124.804688 139.476562 C 124.648438 139.960938 125.738281 141.117188 126.714844 141.652344 Z M 126.714844 141.652344 " fill-opacity="1" fill-rule="nonzero"/><g clip-path="url(#b0215827f4)"><path fill="#00b0dc" d="M 179.597656 134.539062 C 174.273438 135.808594 171.589844 132.347656 168.558594 129.242188 C 161.082031 121.558594 153.578125 113.878906 145.800781 106.480469 C 144.800781 105.585938 143.683594 104.875 142.449219 104.347656 C 141.214844 103.824219 139.925781 103.507812 138.589844 103.40625 C 130.234375 103.015625 121.851562 103.179688 113.480469 103.277344 C 110.910156 103.277344 109.164062 102.628906 107.53125 100.425781 C 104.488281 96.359375 100.261719 94.34375 95.058594 95.71875 C 94.394531 95.875 93.746094 96.082031 93.113281 96.34375 C 92.480469 96.605469 91.875 96.917969 91.292969 97.277344 C 90.710938 97.636719 90.164062 98.042969 89.648438 98.492188 C 89.132812 98.945312 88.660156 99.433594 88.222656 99.960938 C 87.789062 100.488281 87.398438 101.046875 87.054688 101.640625 C 86.710938 102.230469 86.417969 102.847656 86.175781 103.484375 C 85.933594 104.125 85.742188 104.777344 85.605469 105.449219 C 85.46875 106.121094 85.386719 106.796875 85.363281 107.480469 C 85.167969 112.527344 88.550781 117.332031 93.734375 119.339844 C 98.613281 121.226562 103.488281 119.527344 107.554688 115.167969 C 108.273438 114.414062 109.101562 113.800781 110.039062 113.339844 C 110.972656 112.875 111.960938 112.585938 113 112.472656 C 120.378906 112.144531 127.792969 112.097656 135.175781 112.414062 C 136.378906 112.5 137.535156 112.773438 138.648438 113.238281 C 139.761719 113.703125 140.773438 114.332031 141.679688 115.128906 C 149.097656 122.09375 156.238281 129.371094 163.453125 136.554688 C 164.257812 137.472656 165.007812 138.425781 165.707031 139.425781 C 160.1875 144.855469 154.140625 149.585938 149.660156 155.503906 C 142.667969 164.730469 133.816406 167.332031 123.078125 165.601562 C 121.359375 165.335938 119.902344 164.566406 118.714844 163.292969 C 113.773438 157.136719 106.015625 156.226562 100.410156 161.398438 C 99.816406 161.964844 99.289062 162.585938 98.820312 163.257812 C 98.355469 163.933594 97.960938 164.644531 97.640625 165.398438 C 97.316406 166.152344 97.074219 166.933594 96.910156 167.734375 C 96.746094 168.539062 96.664062 169.347656 96.664062 170.167969 C 96.664062 170.988281 96.746094 171.800781 96.910156 172.601562 C 97.074219 173.40625 97.316406 174.183594 97.640625 174.9375 C 97.960938 175.691406 98.355469 176.40625 98.820312 177.078125 C 99.289062 177.753906 99.816406 178.371094 100.410156 178.9375 C 106.007812 184.167969 113.550781 183.28125 118.730469 177.078125 C 119.351562 176.394531 120.070312 175.839844 120.894531 175.421875 C 121.714844 175 122.585938 174.742188 123.503906 174.640625 C 128.242188 174.339844 132.984375 174.304688 137.726562 174.535156 C 138.523438 174.59375 139.3125 174.558594 140.097656 174.433594 C 140.886719 174.308594 141.648438 174.09375 142.382812 173.792969 C 143.121094 173.492188 143.8125 173.109375 144.460938 172.648438 C 145.109375 172.183594 145.695312 171.652344 146.222656 171.054688 C 157.40625 159.308594 168.738281 147.707031 180.019531 136.050781 C 179.882812 135.539062 179.738281 135.035156 179.597656 134.539062 Z M 102.179688 108.089844 C 102.113281 108.539062 101.964844 108.960938 101.742188 109.355469 C 101.515625 109.75 101.230469 110.09375 100.878906 110.382812 C 100.527344 110.671875 100.136719 110.886719 99.703125 111.03125 C 99.273438 111.175781 98.832031 111.234375 98.375 111.214844 C 97.921875 111.195312 97.488281 111.09375 97.070312 110.914062 C 96.652344 110.730469 96.285156 110.480469 95.960938 110.164062 C 95.636719 109.84375 95.378906 109.480469 95.191406 109.066406 C 95 108.652344 94.894531 108.21875 94.863281 107.765625 C 94.863281 107.765625 94.863281 107.707031 94.863281 107.683594 C 94.871094 107.195312 94.972656 106.722656 95.167969 106.273438 C 95.359375 105.824219 95.632812 105.429688 95.984375 105.089844 C 96.335938 104.75 96.738281 104.488281 97.191406 104.304688 C 97.648438 104.125 98.117188 104.039062 98.609375 104.046875 C 99.097656 104.054688 99.566406 104.152344 100.015625 104.347656 C 100.464844 104.539062 100.859375 104.8125 101.203125 105.164062 C 101.542969 105.515625 101.804688 105.917969 101.984375 106.371094 C 102.164062 106.828125 102.253906 107.300781 102.246094 107.789062 C 102.246094 107.886719 102.246094 107.976562 102.246094 108.074219 Z M 113.609375 170.160156 C 113.613281 170.425781 113.585938 170.691406 113.535156 170.953125 C 113.488281 171.214844 113.410156 171.46875 113.3125 171.71875 C 113.210938 171.964844 113.085938 172.199219 112.941406 172.421875 C 112.792969 172.644531 112.625 172.851562 112.4375 173.042969 C 112.25 173.230469 112.046875 173.402344 111.828125 173.550781 C 111.605469 173.699219 111.371094 173.828125 111.125 173.929688 C 110.878906 174.035156 110.628906 174.113281 110.367188 174.167969 C 110.105469 174.222656 109.839844 174.25 109.574219 174.25 C 109.308594 174.253906 109.042969 174.230469 108.78125 174.179688 C 108.519531 174.128906 108.265625 174.054688 108.015625 173.953125 C 107.769531 173.851562 107.535156 173.730469 107.3125 173.582031 C 107.089844 173.4375 106.882812 173.269531 106.691406 173.082031 C 106.503906 172.894531 106.332031 172.691406 106.183594 172.46875 C 106.03125 172.25 105.90625 172.015625 105.800781 171.769531 C 105.699219 171.523438 105.617188 171.269531 105.566406 171.007812 C 105.511719 170.75 105.484375 170.484375 105.480469 170.21875 C 105.480469 170.21875 105.480469 170.21875 105.480469 170.167969 C 105.480469 169.902344 105.507812 169.636719 105.558594 169.375 C 105.609375 169.113281 105.6875 168.859375 105.789062 168.613281 C 105.890625 168.367188 106.019531 168.132812 106.164062 167.910156 C 106.3125 167.6875 106.484375 167.484375 106.671875 167.292969 C 106.859375 167.105469 107.066406 166.9375 107.289062 166.789062 C 107.507812 166.640625 107.742188 166.515625 107.988281 166.414062 C 108.238281 166.3125 108.492188 166.234375 108.753906 166.183594 C 109.015625 166.128906 109.277344 166.105469 109.546875 166.105469 C 109.8125 166.105469 110.078125 166.128906 110.339844 166.183594 C 110.601562 166.234375 110.855469 166.3125 111.101562 166.414062 C 111.347656 166.515625 111.582031 166.640625 111.804688 166.789062 C 112.023438 166.9375 112.230469 167.105469 112.417969 167.292969 C 112.609375 167.484375 112.777344 167.6875 112.925781 167.910156 C 113.074219 168.132812 113.199219 168.367188 113.300781 168.613281 C 113.402344 168.859375 113.480469 169.113281 113.53125 169.375 C 113.582031 169.636719 113.609375 169.902344 113.609375 170.167969 Z M 113.609375 170.160156 " fill-opacity="1" fill-rule="nonzero"/></g><path fill="#00b0dc" d="M 249.097656 127.054688 C 248.332031 127.046875 247.574219 127.109375 246.824219 127.25 C 246.070312 127.386719 245.339844 127.59375 244.628906 127.875 C 243.917969 128.152344 243.238281 128.496094 242.59375 128.90625 C 241.949219 129.320312 241.347656 129.785156 240.792969 130.3125 C 240.238281 130.839844 239.738281 131.414062 239.296875 132.035156 C 238.851562 132.660156 238.472656 133.316406 238.15625 134.011719 C 237.839844 134.710938 237.59375 135.429688 237.414062 136.171875 C 237.238281 136.917969 237.132812 137.671875 237.101562 138.433594 C 237.019531 144.734375 242.035156 150.210938 248.050781 150.382812 C 254.59375 150.578125 260.339844 145.402344 260.648438 139.003906 C 260.941406 133.085938 255.25 127.207031 249.097656 127.054688 Z M 249.382812 142.5 C 248.875 142.5 248.386719 142.402344 247.917969 142.210938 C 247.449219 142.015625 247.035156 141.742188 246.675781 141.382812 C 246.316406 141.023438 246.042969 140.613281 245.847656 140.144531 C 245.652344 139.675781 245.554688 139.1875 245.554688 138.679688 C 245.554688 138.171875 245.652344 137.6875 245.84375 137.21875 C 246.039062 136.75 246.316406 136.335938 246.671875 135.976562 C 247.03125 135.617188 247.445312 135.339844 247.914062 135.148438 C 248.382812 134.953125 248.871094 134.855469 249.378906 134.859375 C 249.882812 134.859375 250.371094 134.957031 250.839844 135.148438 C 251.308594 135.34375 251.722656 135.621094 252.078125 135.980469 C 252.4375 136.339844 252.714844 136.753906 252.90625 137.222656 C 253.101562 137.691406 253.195312 138.179688 253.195312 138.6875 C 253.199219 139.195312 253.105469 139.683594 252.914062 140.15625 C 252.722656 140.625 252.449219 141.042969 252.089844 141.402344 C 251.730469 141.765625 251.320312 142.042969 250.847656 142.238281 C 250.378906 142.433594 249.890625 142.53125 249.382812 142.53125 Z M 249.382812 142.5 " fill-opacity="1" fill-rule="nonzero"/><g clip-path="url(#dcef9e83d8)"><path fill="#00b0dc" d="M 282.734375 160.039062 C 277.53125 158.414062 273.867188 159.796875 270.746094 163.371094 C 268.304688 166.195312 265.550781 167.167969 261.949219 167 C 254.851562 166.65625 247.726562 166.730469 240.636719 166.234375 C 238.425781 165.996094 236.5 165.121094 234.863281 163.617188 C 229.589844 158.660156 224.589844 153.421875 219.542969 148.230469 C 216.601562 145.195312 213.769531 142.050781 210.421875 138.476562 C 216.40625 132.703125 221.949219 127.417969 227.410156 122.054688 C 238.15625 111.488281 238.132812 111.488281 253.136719 111.910156 C 253.285156 111.910156 253.445312 111.910156 253.554688 111.910156 C 255.179688 112.722656 257.234375 113.234375 258.324219 114.527344 C 263.203125 120.300781 270.84375 121.175781 275.980469 116.265625 C 276.550781 115.703125 277.058594 115.085938 277.507812 114.421875 C 277.953125 113.753906 278.332031 113.050781 278.636719 112.308594 C 278.945312 111.566406 279.171875 110.800781 279.324219 110.011719 C 279.476562 109.222656 279.550781 108.429688 279.542969 107.625 C 279.535156 106.824219 279.449219 106.03125 279.28125 105.246094 C 279.117188 104.460938 278.875 103.699219 278.554688 102.960938 C 278.234375 102.226562 277.84375 101.527344 277.386719 100.871094 C 276.925781 100.210938 276.40625 99.605469 275.824219 99.050781 C 270.613281 94.171875 263.113281 95.125 258.210938 100.914062 C 257.535156 101.625 256.757812 102.199219 255.871094 102.628906 C 254.988281 103.058594 254.058594 103.324219 253.082031 103.414062 C 248.082031 103.742188 243.027344 103.238281 238.035156 103.628906 C 235.574219 103.820312 233.410156 104.714844 231.53125 106.316406 C 223.648438 113.796875 216.015625 121.558594 208.367188 129.28125 C 205.339844 132.328125 202.773438 136.078125 197.125 134.410156 C 200.960938 139.289062 203.773438 143.644531 207.285156 147.285156 C 215.011719 155.300781 222.957031 163.101562 231.117188 170.6875 C 232.136719 171.585938 233.273438 172.296875 234.523438 172.820312 C 235.777344 173.347656 237.078125 173.65625 238.433594 173.753906 C 245.945312 174.109375 253.503906 174.0625 261.015625 173.671875 C 265.347656 173.445312 268.875 174.445312 272.09375 177.304688 C 275.832031 180.621094 280.371094 181.726562 284.140625 178.183594 C 286.628906 175.851562 288.914062 172.003906 289.019531 168.769531 C 289.027344 165.363281 287.621094 161.550781 282.734375 160.039062 Z M 268.574219 103.414062 C 269.128906 103.417969 269.660156 103.519531 270.171875 103.722656 C 270.6875 103.925781 271.144531 104.214844 271.550781 104.589844 C 271.953125 104.96875 272.273438 105.40625 272.511719 105.90625 C 272.746094 106.40625 272.886719 106.929688 272.921875 107.480469 C 272.921875 107.5625 272.921875 107.644531 272.921875 107.722656 C 272.921875 108.011719 272.894531 108.296875 272.839844 108.578125 C 272.78125 108.859375 272.699219 109.136719 272.589844 109.402344 C 272.480469 109.667969 272.34375 109.917969 272.183594 110.15625 C 272.023438 110.398438 271.84375 110.617188 271.640625 110.820312 C 271.4375 111.027344 271.214844 111.207031 270.976562 111.367188 C 270.738281 111.527344 270.484375 111.660156 270.21875 111.773438 C 269.953125 111.882812 269.679688 111.964844 269.398438 112.019531 C 269.113281 112.078125 268.828125 112.105469 268.542969 112.105469 C 268.253906 112.105469 267.96875 112.078125 267.6875 112.019531 C 267.40625 111.964844 267.132812 111.882812 266.867188 111.773438 C 266.601562 111.660156 266.347656 111.527344 266.109375 111.367188 C 265.867188 111.207031 265.648438 111.027344 265.445312 110.820312 C 265.242188 110.617188 265.058594 110.398438 264.898438 110.15625 C 264.738281 109.917969 264.605469 109.667969 264.496094 109.402344 C 264.382812 109.136719 264.300781 108.859375 264.246094 108.578125 C 264.1875 108.296875 264.160156 108.011719 264.160156 107.722656 C 264.160156 107.4375 264.1875 107.152344 264.246094 106.871094 C 264.300781 106.585938 264.382812 106.3125 264.496094 106.046875 C 264.605469 105.78125 264.738281 105.527344 264.898438 105.289062 C 265.058594 105.050781 265.242188 104.828125 265.445312 104.625 C 265.648438 104.421875 265.867188 104.242188 266.109375 104.082031 C 266.347656 103.921875 266.601562 103.785156 266.867188 103.675781 C 267.132812 103.566406 267.40625 103.484375 267.6875 103.425781 C 267.96875 103.371094 268.253906 103.34375 268.542969 103.34375 Z M 279.328125 175.933594 C 278.976562 175.933594 278.632812 175.898438 278.285156 175.828125 C 277.941406 175.761719 277.609375 175.660156 277.285156 175.523438 C 276.960938 175.390625 276.652344 175.226562 276.363281 175.03125 C 276.070312 174.835938 275.800781 174.617188 275.550781 174.367188 C 275.304688 174.121094 275.082031 173.851562 274.886719 173.558594 C 274.695312 173.265625 274.527344 172.957031 274.394531 172.636719 C 274.261719 172.3125 274.160156 171.976562 274.089844 171.632812 C 274.023438 171.289062 273.988281 170.941406 273.988281 170.589844 C 273.988281 170.242188 274.023438 169.894531 274.089844 169.550781 C 274.160156 169.207031 274.261719 168.871094 274.394531 168.546875 C 274.527344 168.222656 274.695312 167.914062 274.886719 167.625 C 275.082031 167.332031 275.304688 167.0625 275.550781 166.816406 C 275.800781 166.566406 276.070312 166.34375 276.363281 166.152344 C 276.652344 165.957031 276.960938 165.792969 277.285156 165.65625 C 277.609375 165.523438 277.941406 165.421875 278.285156 165.351562 C 278.632812 165.285156 278.976562 165.25 279.328125 165.25 C 279.679688 165.25 280.027344 165.285156 280.371094 165.351562 C 280.714844 165.421875 281.046875 165.523438 281.371094 165.65625 C 281.695312 165.792969 282.003906 165.957031 282.296875 166.152344 C 282.585938 166.34375 282.855469 166.566406 283.105469 166.816406 C 283.351562 167.0625 283.574219 167.332031 283.769531 167.625 C 283.964844 167.914062 284.128906 168.222656 284.261719 168.546875 C 284.398438 168.871094 284.5 169.207031 284.566406 169.550781 C 284.636719 169.894531 284.667969 170.242188 284.667969 170.589844 C 284.667969 170.941406 284.636719 171.289062 284.566406 171.632812 C 284.5 171.976562 284.398438 172.3125 284.261719 172.636719 C 284.128906 172.957031 283.964844 173.265625 283.769531 173.558594 C 283.574219 173.851562 283.351562 174.121094 283.105469 174.367188 C 282.855469 174.617188 282.585938 174.835938 282.296875 175.03125 C 282.003906 175.226562 281.695312 175.390625 281.371094 175.523438 C 281.046875 175.660156 280.714844 175.761719 280.371094 175.828125 C 280.027344 175.898438 279.679688 175.933594 279.328125 175.933594 Z M 279.328125 175.933594 " fill-opacity="1" fill-rule="nonzero"/></g><path fill="#00b0dc" d="M 228.574219 40.0625 C 228.003906 39.441406 227.382812 38.886719 226.699219 38.398438 C 226.015625 37.910156 225.292969 37.496094 224.523438 37.15625 C 223.757812 36.816406 222.960938 36.558594 222.140625 36.382812 C 221.320312 36.207031 220.492188 36.117188 219.652344 36.113281 C 218.8125 36.109375 217.980469 36.191406 217.160156 36.359375 C 216.335938 36.523438 215.539062 36.773438 214.769531 37.105469 C 213.996094 37.4375 213.269531 37.847656 212.582031 38.328125 C 211.894531 38.8125 211.265625 39.359375 210.691406 39.972656 C 210.390625 40.277344 210.109375 40.597656 209.84375 40.933594 C 209.578125 41.269531 209.335938 41.621094 209.105469 41.984375 C 208.878906 42.347656 208.671875 42.71875 208.488281 43.105469 C 208.300781 43.492188 208.136719 43.882812 207.992188 44.289062 C 207.847656 44.691406 207.726562 45.101562 207.628906 45.515625 C 207.527344 45.933594 207.453125 46.351562 207.398438 46.777344 C 207.34375 47.203125 207.3125 47.628906 207.304688 48.054688 C 207.296875 48.484375 207.3125 48.910156 207.351562 49.335938 C 207.390625 49.761719 207.453125 50.1875 207.535156 50.605469 C 207.621094 51.023438 207.726562 51.4375 207.855469 51.847656 C 207.984375 52.253906 208.136719 52.65625 208.308594 53.046875 C 208.480469 53.4375 208.675781 53.820312 208.886719 54.191406 C 209.101562 54.5625 209.335938 54.917969 209.585938 55.265625 C 209.839844 55.609375 210.109375 55.941406 210.398438 56.257812 C 210.6875 56.574219 210.992188 56.875 211.3125 57.15625 C 211.632812 57.441406 211.964844 57.707031 212.316406 57.953125 C 212.800781 58.273438 213.234375 58.65625 213.617188 59.09375 C 214 59.535156 214.320312 60.015625 214.570312 60.542969 C 214.824219 61.066406 215.003906 61.617188 215.109375 62.1875 C 215.214844 62.761719 215.242188 63.339844 215.195312 63.917969 C 215.105469 71.445312 215.300781 78.988281 215.089844 86.515625 C 215.015625 88.460938 214.339844 90.167969 213.0625 91.636719 C 205.855469 99.15625 198.351562 106.398438 191.035156 113.886719 C 188.96875 116.015625 187.628906 115.976562 185.613281 113.835938 C 181.035156 108.960938 176.671875 103.734375 171.421875 99.691406 C 163.007812 93.191406 160.226562 85.167969 161.667969 74.988281 C 162.03125 72.355469 162.414062 70.488281 164.773438 68.753906 C 170.332031 64.691406 170.890625 56.628906 166.398438 51.304688 C 165.875 50.691406 165.300781 50.140625 164.667969 49.644531 C 164.039062 49.148438 163.363281 48.71875 162.648438 48.355469 C 161.933594 47.992188 161.1875 47.703125 160.417969 47.488281 C 159.644531 47.269531 158.855469 47.132812 158.058594 47.070312 C 157.257812 47.011719 156.457031 47.03125 155.660156 47.125 C 154.863281 47.222656 154.085938 47.398438 153.324219 47.648438 C 152.5625 47.898438 151.832031 48.222656 151.132812 48.617188 C 150.433594 49.011719 149.78125 49.46875 149.171875 49.996094 C 144.042969 54.398438 142.929688 63.457031 148.253906 67.390625 C 152.984375 70.894531 152.585938 74.925781 152.644531 79.410156 C 152.691406 82.484375 152.832031 85.558594 152.644531 88.613281 C 152.582031 89.371094 152.609375 90.125 152.722656 90.875 C 152.835938 91.625 153.03125 92.355469 153.3125 93.058594 C 153.597656 93.765625 153.957031 94.429688 154.390625 95.050781 C 154.828125 95.671875 155.328125 96.238281 155.894531 96.742188 C 163.023438 103.578125 169.820312 110.773438 177.03125 117.488281 C 181.492188 121.617188 185.160156 125.769531 184.160156 132.363281 C 184.160156 132.574219 184.417969 132.824219 184.652344 133.175781 L 192.019531 133.175781 C 192.199219 131.972656 192.578125 130.996094 192.441406 130.09375 C 191.824219 125.898438 193.765625 123.078125 196.667969 120.28125 C 204.976562 112.421875 213.0625 104.398438 220.933594 96.074219 C 221.78125 95.117188 222.453125 94.046875 222.945312 92.863281 C 223.441406 91.683594 223.730469 90.453125 223.816406 89.175781 C 224.183594 80.679688 224.0625 72.160156 224.003906 63.648438 C 224.003906 61.261719 224.527344 59.585938 226.664062 58.058594 C 227.011719 57.8125 227.347656 57.546875 227.667969 57.265625 C 227.988281 56.984375 228.292969 56.6875 228.582031 56.371094 C 228.871094 56.058594 229.144531 55.726562 229.398438 55.386719 C 229.652344 55.042969 229.886719 54.6875 230.101562 54.316406 C 230.320312 53.949219 230.515625 53.570312 230.691406 53.183594 C 230.867188 52.792969 231.023438 52.394531 231.15625 51.988281 C 231.289062 51.585938 231.402344 51.171875 231.492188 50.753906 C 231.582031 50.335938 231.648438 49.917969 231.695312 49.492188 C 231.738281 49.066406 231.761719 48.640625 231.761719 48.214844 C 231.761719 47.789062 231.738281 47.363281 231.691406 46.9375 C 231.648438 46.511719 231.578125 46.089844 231.488281 45.675781 C 231.398438 45.257812 231.285156 44.84375 231.152344 44.441406 C 231.019531 44.035156 230.863281 43.636719 230.6875 43.246094 C 230.507812 42.859375 230.3125 42.480469 230.097656 42.113281 C 229.878906 41.746094 229.644531 41.390625 229.390625 41.046875 C 229.136719 40.703125 228.863281 40.375 228.574219 40.0625 Z M 157.855469 63.195312 C 157.347656 63.195312 156.863281 63.097656 156.394531 62.90625 C 155.929688 62.710938 155.515625 62.4375 155.160156 62.078125 C 154.800781 61.722656 154.523438 61.308594 154.332031 60.839844 C 154.136719 60.375 154.042969 59.886719 154.042969 59.382812 C 154.050781 58.890625 154.148438 58.417969 154.339844 57.964844 C 154.53125 57.515625 154.800781 57.113281 155.144531 56.765625 C 155.492188 56.414062 155.890625 56.144531 156.34375 55.949219 C 156.792969 55.757812 157.265625 55.652344 157.757812 55.640625 C 158.246094 55.628906 158.722656 55.710938 159.183594 55.882812 C 159.644531 56.054688 160.054688 56.308594 160.417969 56.640625 C 160.777344 56.972656 161.066406 57.359375 161.277344 57.804688 C 161.488281 58.246094 161.609375 58.714844 161.640625 59.203125 C 161.644531 59.269531 161.644531 59.335938 161.640625 59.398438 C 161.640625 59.898438 161.542969 60.382812 161.351562 60.84375 C 161.160156 61.304688 160.886719 61.714844 160.535156 62.070312 C 160.179688 62.425781 159.773438 62.699219 159.3125 62.894531 C 158.851562 63.089844 158.371094 63.191406 157.871094 63.195312 Z M 219.582031 51.417969 L 219.484375 51.417969 C 218.976562 51.40625 218.488281 51.300781 218.019531 51.101562 C 217.554688 50.902344 217.140625 50.621094 216.78125 50.261719 C 216.421875 49.898438 216.140625 49.484375 215.941406 49.019531 C 215.742188 48.550781 215.636719 48.0625 215.628906 47.550781 C 215.617188 47.042969 215.703125 46.550781 215.882812 46.074219 C 216.066406 45.601562 216.328125 45.175781 216.671875 44.800781 C 217.019531 44.425781 217.421875 44.132812 217.878906 43.914062 C 218.339844 43.695312 218.824219 43.570312 219.332031 43.539062 C 219.398438 43.535156 219.464844 43.535156 219.535156 43.539062 C 220.042969 43.5625 220.53125 43.679688 220.992188 43.890625 C 221.457031 44.101562 221.863281 44.390625 222.21875 44.757812 C 222.570312 45.128906 222.839844 45.546875 223.03125 46.019531 C 223.21875 46.492188 223.3125 46.984375 223.3125 47.496094 C 223.3125 48.003906 223.21875 48.496094 223.03125 48.96875 C 222.839844 49.441406 222.570312 49.863281 222.21875 50.230469 C 221.863281 50.597656 221.457031 50.886719 220.992188 51.097656 C 220.53125 51.308594 220.042969 51.425781 219.535156 51.449219 Z M 219.582031 51.417969 " fill-opacity="1" fill-rule="nonzero"/><g fill="#000000" fill-opacity="1"><g transform="translate(61.231169, 330.458109)"><g><path d="M 7.078125 -3.96875 L 17.5625 -3.96875 L 17.5625 0 L 2.140625 0 L 2.140625 -23.953125 L 7.078125 -23.953125 Z M 7.078125 -3.96875 "/></g></g></g><g fill="#000000" fill-opacity="1"><g transform="translate(81.197667, 330.458109)"><g><path d="M 15.671875 -4.9375 L 7.015625 -4.9375 L 5.359375 0 L 0.109375 0 L 9.03125 -23.953125 L 13.609375 -23.953125 L 22.578125 0 L 17.328125 0 Z M 8.34375 -8.9375 L 14.328125 -8.9375 L 11.328125 -17.90625 Z M 8.34375 -8.9375 "/></g></g></g><g fill="#000000" fill-opacity="1"><g transform="translate(105.59016, 330.458109)"><g/></g></g><g fill="#000000" fill-opacity="1"><g transform="translate(115.701003, 330.458109)"><g><path d="M 16.5625 -9.796875 L 7.078125 -9.796875 L 7.078125 0 L 2.140625 0 L 2.140625 -23.953125 L 17.734375 -23.953125 L 17.734375 -19.96875 L 7.078125 -19.96875 L 7.078125 -13.78125 L 16.5625 -13.78125 Z M 16.5625 -9.796875 "/></g></g></g><g fill="#000000" fill-opacity="1"><g transform="translate(135.881396, 330.458109)"><g><path d="M 11.015625 -8.765625 L 7.078125 -8.765625 L 7.078125 0 L 2.140625 0 L 2.140625 -23.953125 L 11.046875 -23.953125 C 13.867188 -23.953125 16.046875 -23.320312 17.578125 -22.0625 C 19.117188 -20.800781 19.890625 -19.019531 19.890625 -16.71875 C 19.890625 -15.082031 19.535156 -13.71875 18.828125 -12.625 C 18.117188 -11.539062 17.050781 -10.671875 15.625 -10.015625 L 20.796875 -0.234375 L 20.796875 0 L 15.5 0 Z M 7.078125 -12.765625 L 11.0625 -12.765625 C 12.300781 -12.765625 13.257812 -13.078125 13.9375 -13.703125 C 14.613281 -14.335938 14.953125 -15.210938 14.953125 -16.328125 C 14.953125 -17.453125 14.628906 -18.335938 13.984375 -18.984375 C 13.347656 -19.640625 12.367188 -19.96875 11.046875 -19.96875 L 7.078125 -19.96875 Z M 7.078125 -12.765625 "/></g></g></g><g fill="#000000" fill-opacity="1"><g transform="translate(159.10569, 330.458109)"><g><path d="M 16.5625 -10.390625 L 7.078125 -10.390625 L 7.078125 -3.96875 L 18.203125 -3.96875 L 18.203125 0 L 2.140625 0 L 2.140625 -23.953125 L 18.171875 -23.953125 L 18.171875 -19.96875 L 7.078125 -19.96875 L 7.078125 -14.25 L 16.5625 -14.25 Z M 16.5625 -10.390625 "/></g></g></g><g fill="#000000" fill-opacity="1"><g transform="translate(179.779689, 330.458109)"><g><path d="M 16.5625 -10.390625 L 7.078125 -10.390625 L 7.078125 -3.96875 L 18.203125 -3.96875 L 18.203125 0 L 2.140625 0 L 2.140625 -23.953125 L 18.171875 -23.953125 L 18.171875 -19.96875 L 7.078125 -19.96875 L 7.078125 -14.25 L 16.5625 -14.25 Z M 16.5625 -10.390625 "/></g></g></g><g fill="#000000" fill-opacity="1"><g transform="translate(200.453689, 330.458109)"><g><path d="M 7.078125 -3.96875 L 17.5625 -3.96875 L 17.5625 0 L 2.140625 0 L 2.140625 -23.953125 L 7.078125 -23.953125 Z M 7.078125 -3.96875 "/></g></g></g><g fill="#000000" fill-opacity="1"><g transform="translate(220.420186, 330.458109)"><g><path d="M 15.671875 -4.9375 L 7.015625 -4.9375 L 5.359375 0 L 0.109375 0 L 9.03125 -23.953125 L 13.609375 -23.953125 L 22.578125 0 L 17.328125 0 Z M 8.34375 -8.9375 L 14.328125 -8.9375 L 11.328125 -17.90625 Z M 8.34375 -8.9375 "/></g></g></g><g fill="#000000" fill-opacity="1"><g transform="translate(244.81268, 330.458109)"><g><path d="M 21.625 0 L 16.6875 0 L 7.078125 -15.765625 L 7.078125 0 L 2.140625 0 L 2.140625 -23.953125 L 7.078125 -23.953125 L 16.703125 -8.15625 L 16.703125 -23.953125 L 21.625 -23.953125 Z M 21.625 0 "/></g></g></g><g fill="#000000" fill-opacity="1"><g transform="translate(270.324012, 330.458109)"><g><path d="M 20.953125 -7.984375 C 20.765625 -5.398438 19.8125 -3.367188 18.09375 -1.890625 C 16.375 -0.410156 14.113281 0.328125 11.3125 0.328125 C 8.238281 0.328125 5.820312 -0.703125 4.0625 -2.765625 C 2.300781 -4.835938 1.421875 -7.679688 1.421875 -11.296875 L 1.421875 -12.75 C 1.421875 -15.050781 1.820312 -17.078125 2.625 -18.828125 C 3.4375 -20.585938 4.597656 -21.9375 6.109375 -22.875 C 7.617188 -23.820312 9.375 -24.296875 11.375 -24.296875 C 14.132812 -24.296875 16.359375 -23.550781 18.046875 -22.0625 C 19.742188 -20.582031 20.722656 -18.503906 20.984375 -15.828125 L 16.046875 -15.828125 C 15.921875 -17.378906 15.488281 -18.5 14.75 -19.1875 C 14.007812 -19.882812 12.882812 -20.234375 11.375 -20.234375 C 9.726562 -20.234375 8.492188 -19.644531 7.671875 -18.46875 C 6.859375 -17.289062 6.441406 -15.460938 6.421875 -12.984375 L 6.421875 -11.171875 C 6.421875 -8.585938 6.8125 -6.695312 7.59375 -5.5 C 8.375 -4.300781 9.613281 -3.703125 11.3125 -3.703125 C 12.832031 -3.703125 13.96875 -4.050781 14.71875 -4.75 C 15.46875 -5.445312 15.898438 -6.523438 16.015625 -7.984375 Z M 20.953125 -7.984375 "/></g></g></g><g fill="#000000" fill-opacity="1"><g transform="translate(294.091271, 330.458109)"><g><path d="M 16.5625 -10.390625 L 7.078125 -10.390625 L 7.078125 -3.96875 L 18.203125 -3.96875 L 18.203125 0 L 2.140625 0 L 2.140625 -23.953125 L 18.171875 -23.953125 L 18.171875 -19.96875 L 7.078125 -19.96875 L 7.078125 -14.25 L 16.5625 -14.25 Z M 16.5625 -10.390625 "/></g></g></g></svg>