<svg width="24" height="25" viewBox="0 0 24 25" fill="none" xmlns="http://www.w3.org/2000/svg">
    <path d="M12 14C11.2583 14 10.5333 13.7801 9.91661 13.368C9.29993 12.956 8.81928 12.3703 8.53545 11.6851C8.25162 10.9998 8.17736 10.2458 8.32206 9.51841C8.46675 8.79098 8.8239 8.1228 9.34835 7.59835C9.8728 7.0739 10.541 6.71675 11.2684 6.57206C11.9958 6.42736 12.7498 6.50162 13.4351 6.78545C14.1203 7.06928 14.706 7.54993 15.118 8.16661C15.5301 8.7833 15.75 9.50832 15.75 10.25C15.7488 11.2442 15.3533 12.1973 14.6503 12.9003C13.9473 13.6033 12.9942 13.9988 12 14ZM12 8C11.555 8 11.12 8.13196 10.75 8.3792C10.38 8.62643 10.0916 8.97783 9.92127 9.38896C9.75098 9.8001 9.70642 10.2525 9.79323 10.689C9.88005 11.1254 10.0943 11.5263 10.409 11.841C10.7237 12.1557 11.1246 12.37 11.561 12.4568C11.9975 12.5436 12.4499 12.499 12.861 12.3287C13.2722 12.1584 13.6236 11.87 13.8708 11.5C14.118 11.13 14.25 10.695 14.25 10.25C14.2494 9.65345 14.0122 9.0815 13.5903 8.65967C13.1685 8.23784 12.5966 8.0006 12 8Z" fill="#7C8493"/>
    <path d="M12 23L5.67301 15.5382C5.58509 15.4262 5.49809 15.3135 5.41201 15.2C4.33124 13.7763 3.74739 12.0374 3.75001 10.25C3.75001 8.06196 4.6192 5.96354 6.16638 4.41637C7.71355 2.86919 9.81197 2 12 2C14.188 2 16.2865 2.86919 17.8336 4.41637C19.3808 5.96354 20.25 8.06196 20.25 10.25C20.2526 12.0366 19.669 13.7747 18.5888 15.1978L18.588 15.2C18.588 15.2 18.363 15.4955 18.3293 15.5353L12 23ZM6.60901 14.2963C6.61051 14.2963 6.78451 14.5272 6.82426 14.5767L12 20.681L17.1825 14.5685C17.2155 14.5272 17.391 14.2948 17.3918 14.294C18.2746 13.1308 18.7517 11.7103 18.75 10.25C18.75 8.45979 18.0388 6.7429 16.773 5.47703C15.5071 4.21116 13.7902 3.5 12 3.5C10.2098 3.5 8.49291 4.21116 7.22704 5.47703C5.96117 6.7429 5.25001 8.45979 5.25001 10.25C5.24844 11.7112 5.72609 13.1326 6.60976 14.2963H6.60901Z" fill="#7C8493"/>
    </svg>
    