<svg width="24" height="25" viewBox="0 0 24 25" fill="none" xmlns="http://www.w3.org/2000/svg">
    <g clip-path="url(#clip0_1056_459)">
    <path d="M21.334 4.5H2.66732C2.3137 4.5 1.97456 4.64048 1.72451 4.89052C1.47446 5.14057 1.33398 5.47971 1.33398 5.83333V19.1667C1.33398 19.5203 1.47446 19.8594 1.72451 20.1095C1.97456 20.3595 2.3137 20.5 2.66732 20.5H21.334C21.6876 20.5 22.0267 20.3595 22.2768 20.1095C22.5268 19.8594 22.6673 19.5203 22.6673 19.1667V5.83333C22.6673 5.47971 22.5268 5.14057 22.2768 4.89052C22.0267 4.64048 21.6876 4.5 21.334 4.5ZM20.3073 19.1667H3.77398L8.44065 14.34L7.48065 13.4133L2.66732 18.3933V6.84667L10.954 15.0933C11.2038 15.3417 11.5417 15.4811 11.894 15.4811C12.2462 15.4811 12.5842 15.3417 12.834 15.0933L21.334 6.64V18.3067L16.4273 13.4L15.4873 14.34L20.3073 19.1667ZM3.54065 5.83333H20.254L11.894 14.1467L3.54065 5.83333Z" fill="#7C8493"/>
    </g>
    <defs>
    <clipPath id="clip0_1056_459">
    <rect width="24" height="24" fill="white" transform="translate(0 0.5)"/>
    </clipPath>
    </defs>
    </svg>
    