<svg width="24" height="25" viewBox="0 0 24 25" fill="none" xmlns="http://www.w3.org/2000/svg">
    <path d="M18 10.25H16.5C16.4994 9.65345 16.2622 9.0815 15.8403 8.65967C15.4185 8.23784 14.8466 8.0006 14.25 8V6.5C15.2442 6.50119 16.1973 6.89666 16.9003 7.59966C17.6033 8.30267 17.9988 9.2558 18 10.25Z" fill="#7C8493"/>
    <path d="M21.0008 10.25H19.5008C19.4992 8.8581 18.9455 7.52367 17.9613 6.53944C16.9771 5.55522 15.6427 5.00159 14.2508 5V3.5C16.0404 3.50199 17.7561 4.21378 19.0215 5.47922C20.287 6.74466 20.9988 8.4604 21.0008 10.25ZM19.5008 22.25H19.3733C4.63576 21.4025 2.54326 8.9675 2.25076 5.1725C2.20504 4.57756 2.39752 3.98883 2.78586 3.53579C3.17419 3.08276 3.72658 2.80253 4.32151 2.75675C4.38101 2.75225 4.44076 2.75 4.50076 2.75H8.45326C8.75368 2.74971 9.04726 2.83963 9.29598 3.00812C9.5447 3.17661 9.7371 3.4159 9.84826 3.695L10.9883 6.5C11.098 6.77266 11.1253 7.07156 11.0666 7.35957C11.0079 7.64758 10.8659 7.912 10.6583 8.12L9.06076 9.7325C9.30928 11.151 9.98805 12.4587 11.005 13.4784C12.022 14.498 13.3279 15.1802 14.7458 15.4325L16.3733 13.82C16.5844 13.6146 16.8513 13.4759 17.1407 13.4213C17.4301 13.3666 17.7293 13.3983 18.0008 13.5125L20.8283 14.645C21.1031 14.7597 21.3377 14.9536 21.502 15.202C21.6663 15.4504 21.7529 15.7422 21.7508 16.04V20C21.7508 20.5967 21.5137 21.169 21.0918 21.591C20.6698 22.0129 20.0975 22.25 19.5008 22.25ZM4.50076 4.25C4.40227 4.2497 4.30468 4.26881 4.21357 4.30623C4.12247 4.34365 4.03962 4.39864 3.96977 4.46808C3.89992 4.53751 3.84442 4.62003 3.80646 4.71091C3.7685 4.80179 3.7488 4.89926 3.74851 4.99775C3.74851 5.01875 3.74926 5.0395 3.75076 5.06C4.09576 9.5 6.30826 20 19.4558 20.75C19.6543 20.7619 19.8494 20.6945 19.9982 20.5625C20.147 20.4306 20.2373 20.245 20.2493 20.0465L20.2508 20V16.04L17.4233 14.9075L15.2708 17.045L14.9108 17C8.38576 16.1825 7.50076 9.6575 7.50076 9.59L7.45576 9.23L9.58576 7.0775L8.46076 4.25H4.50076Z" fill="#7C8493"/>
    </svg>
    